<svg width="25" height="24" viewBox="0 0 25 24" fill="none" xmlns="http://www.w3.org/2000/svg">
<path d="M12.8672 22C18.3009 22 22.8907 17.421 22.8907 12C22.8907 6.579 18.3009 2 12.8672 2C7.43351 2 2.84378 6.579 2.84378 12C2.84378 17.421 7.43351 22 12.8672 22ZM12.8672 4C17.2144 4 20.886 7.663 20.886 12C20.886 16.337 17.2144 20 12.8672 20C8.52005 20 4.84847 16.337 4.84847 12C4.84847 7.663 8.52005 4 12.8672 4Z" fill="#CE997F"/>
<path d="M12.8672 17C13.7703 17 15.4543 16.832 16.5829 15.708L15.1656 14.292C14.7216 14.735 13.8615 15 12.8672 15C11.2374 15 9.86019 13.626 9.86019 12C9.86019 10.374 11.2374 9 12.8672 9C13.8625 9 14.7226 9.265 15.1656 9.707L16.5829 8.293C15.4553 7.168 13.7703 7 12.8672 7C10.1038 7 7.8555 9.243 7.8555 12C7.8555 14.757 10.1038 17 12.8672 17Z" fill="#CE997F"/>
</svg>
