<svg width="28" height="28" viewBox="0 0 28 28" fill="none" xmlns="http://www.w3.org/2000/svg">
<path d="M6.30815 23.781C7.75719 20.9434 10.7115 19 14.1205 19C17.5032 19 20.4381 20.9135 21.899 23.7154M17.0417 12.0555C17.0417 13.7431 15.6716 15.1111 13.9814 15.1111C12.2913 15.1111 10.9211 13.7431 10.9211 12.0555C10.9211 10.368 12.2913 9 13.9814 9C15.6716 9 17.0417 10.368 17.0417 12.0555ZM14.1205 26.5C7.20614 26.5 1.60094 20.9035 1.60094 14C1.60094 7.09644 7.20614 1.5 14.1205 1.5C21.0348 1.5 26.6401 7.09644 26.6401 14C26.6401 20.9035 21.0348 26.5 14.1205 26.5Z" stroke="#542F16" stroke-width="2" stroke-linecap="round" stroke-linejoin="round"/>
</svg>
